<svg width="120" height="120" viewBox="0 0 120 120" fill="none" xmlns="http://www.w3.org/2000/svg">
<path d="M118.5 60C118.5 75.0367 118.498 86.187 117.572 94.5219C116.644 102.868 114.818 108.061 111.439 111.439C108.061 114.818 102.868 116.644 94.5219 117.572C86.187 118.498 75.0367 118.5 60 118.5C27.6913 118.5 1.5 92.3087 1.5 60C1.5 27.6913 27.6913 1.5 60 1.5C92.3087 1.5 118.5 27.6913 118.5 60Z" fill="white" stroke="#1565DC" stroke-width="3"/>
<mask id="mask0_11_249" style="mask-type:alpha" maskUnits="userSpaceOnUse" x="0" y="0" width="120" height="120">
<path d="M118.5 60C118.5 75.0367 118.498 86.187 117.572 94.5219C116.644 102.868 114.818 108.061 111.439 111.439C108.061 114.818 102.868 116.644 94.5219 117.572C86.187 118.498 75.0367 118.5 60 118.5C27.6913 118.5 1.5 92.3087 1.5 60C1.5 27.6913 27.6913 1.5 60 1.5C92.3087 1.5 118.5 27.6913 118.5 60Z" fill="#F0EFFF" stroke="#1565DC" stroke-width="3"/>
</mask>
<g mask="url(#mask0_11_249)">
<rect width="120" height="3" fill="#1565DC"/>
<rect y="13" width="120" height="3" fill="#1565DC"/>
<rect y="26" width="120" height="3" fill="#1565DC"/>
<rect y="39" width="120" height="3" fill="#1565DC"/>
<rect y="52" width="120" height="3" fill="#1565DC"/>
<rect y="65" width="120" height="3" fill="#1565DC"/>
<rect y="78" width="120" height="3" fill="#1565DC"/>
<rect y="91" width="120" height="3" fill="#1565DC"/>
<rect y="104" width="120" height="3" fill="#1565DC"/>
<rect y="117" width="120" height="3" fill="#1565DC"/>
</g>
<mask id="path-13-inside-1_11_249" fill="white">
<path d="M60 60H120V120H60V60Z"/>
</mask>
<path d="M60 60H120V120H60V60Z" fill="white"/>
<path d="M120 120V123H123V120H120ZM117 60V120H123V60H117ZM120 117H60V123H120V117Z" fill="#1565DC" mask="url(#path-13-inside-1_11_249)"/>
<path d="M67.5094 75.684H78.5554C80.4874 75.684 82.2514 75.992 83.8474 76.608C85.4434 77.224 86.8014 78.148 87.9214 79.38C89.0414 80.584 89.9094 82.11 90.5254 83.958C91.1414 85.778 91.4494 87.906 91.4494 90.342C91.4494 92.778 91.1414 94.92 90.5254 96.768C89.9094 98.588 89.0414 100.114 87.9214 101.346C86.8014 102.55 85.4434 103.46 83.8474 104.076C82.2514 104.692 80.4874 105 78.5554 105H67.5094V75.684ZM78.5554 99.33C80.4594 99.33 81.9574 98.798 83.0494 97.734C84.1414 96.67 84.6874 94.962 84.6874 92.61V88.074C84.6874 85.722 84.1414 84.014 83.0494 82.95C81.9574 81.886 80.4594 81.354 78.5554 81.354H73.8934V99.33H78.5554ZM103.935 105.504C101.807 105.504 100.015 105.168 98.5585 104.496C97.1025 103.796 95.8005 102.816 94.6525 101.556L98.3065 97.86C99.0905 98.728 99.9585 99.414 100.911 99.918C101.863 100.422 102.941 100.674 104.145 100.674C105.377 100.674 106.231 100.492 106.707 100.128C107.183 99.736 107.421 99.218 107.421 98.574C107.421 97.538 106.679 96.922 105.195 96.726L102.801 96.432C97.8445 95.816 95.3665 93.548 95.3665 89.628C95.3665 88.564 95.5625 87.598 95.9545 86.73C96.3745 85.834 96.9485 85.078 97.6765 84.462C98.4325 83.818 99.3285 83.328 100.365 82.992C101.429 82.628 102.619 82.446 103.935 82.446C105.083 82.446 106.091 82.53 106.959 82.698C107.855 82.838 108.639 83.062 109.311 83.37C110.011 83.65 110.641 84.014 111.201 84.462C111.789 84.882 112.363 85.358 112.923 85.89L109.353 89.544C108.653 88.844 107.855 88.298 106.959 87.906C106.091 87.486 105.195 87.276 104.271 87.276C103.207 87.276 102.451 87.444 102.003 87.78C101.555 88.116 101.331 88.564 101.331 89.124C101.331 89.712 101.485 90.174 101.793 90.51C102.129 90.818 102.745 91.042 103.641 91.182L106.119 91.518C110.963 92.162 113.385 94.374 113.385 98.154C113.385 99.218 113.161 100.198 112.713 101.094C112.265 101.99 111.621 102.774 110.781 103.446C109.969 104.09 108.975 104.594 107.799 104.958C106.651 105.322 105.363 105.504 103.935 105.504Z" fill="#12111E"/>
</svg>
