<svg width="120" height="120" viewBox="0 0 120 120" fill="none" xmlns="http://www.w3.org/2000/svg">
<path d="M118.5 60C118.5 75.0367 118.498 86.187 117.572 94.5219C116.644 102.868 114.818 108.061 111.439 111.439C108.061 114.818 102.868 116.644 94.5219 117.572C86.187 118.498 75.0367 118.5 60 118.5C27.6913 118.5 1.5 92.3087 1.5 60C1.5 27.6913 27.6913 1.5 60 1.5C92.3087 1.5 118.5 27.6913 118.5 60Z" fill="white" stroke="#FB71A4" stroke-width="3"/>
<path d="M118.5 60C118.5 67.8926 115.893 72.745 111.728 76.0306C107.453 79.4039 101.379 81.2566 94.1723 82.7156C91.2395 83.3094 88.1681 83.8298 84.9926 84.3678C84.2856 84.4875 83.5735 84.6082 82.8566 84.7307C78.9337 85.4012 74.8865 86.125 70.8585 87.0593C62.8079 88.9266 54.7434 91.6538 47.7381 96.5724C40.8719 101.393 34.6072 103.432 29.1162 103.407C23.6444 103.382 18.7977 101.308 14.7299 97.6378C6.53553 90.2435 1.5 76.3294 1.5 60C1.5 27.6913 27.6913 1.5 60 1.5C92.3087 1.5 118.5 27.6913 118.5 60Z" stroke="#FB71A4" stroke-width="3"/>
<path d="M118.5 60C118.5 63.9697 117.745 66.6817 116.533 68.5287C115.342 70.3421 113.611 71.475 111.321 72.1059C108.994 72.7473 106.124 72.8573 102.775 72.6021C99.4361 72.3476 95.7239 71.7398 91.7401 71.0103C90.498 70.7829 89.2297 70.5435 87.9405 70.3002C81.0206 68.9942 73.4986 67.5745 66.1958 67.278C57.5121 66.9254 48.9012 68.143 41.7381 73.1724C34.7289 78.0937 28.6466 81.6681 23.4806 83.774C18.2878 85.8909 14.2147 86.4439 11.1177 85.6037C8.123 84.7913 5.74678 82.5911 4.0822 78.4542C2.39644 74.2646 1.5 68.208 1.5 60C1.5 27.6913 27.6913 1.5 60 1.5C92.3087 1.5 118.5 27.6913 118.5 60Z" stroke="#FB71A4" stroke-width="3"/>
<path d="M118.5 60C118.5 64.021 117.696 66.1826 116.634 67.2749C115.643 68.2941 114.098 68.7017 111.672 68.3202C109.239 67.9376 106.232 66.8014 102.732 65.1477C99.3114 63.5314 95.5354 61.4783 91.5026 59.2855L91.2864 59.168C83.1122 54.7236 73.919 49.7387 65.0453 47.0894C56.1744 44.441 47.2732 44.0222 39.9381 49.1724C32.8237 54.1676 26.7013 59.355 21.5513 63.7747C21.2047 64.0721 20.8631 64.3655 20.5263 64.6548C15.8069 68.7086 12.0361 71.9477 9.04451 73.7705C7.43637 74.7503 6.24475 75.1965 5.38404 75.2481C4.66859 75.291 4.13283 75.0741 3.61678 74.374C3.01996 73.5644 2.46498 72.1051 2.07776 69.6773C1.69589 67.2831 1.5 64.1056 1.5 60C1.5 27.6913 27.6913 1.5 60 1.5C92.3087 1.5 118.5 27.6913 118.5 60Z" stroke="#FB71A4" stroke-width="3"/>
<mask id="path-5-inside-1_11_258" fill="white">
<path d="M60 60H120V120H60V60Z"/>
</mask>
<path d="M60 60H120V120H60V60Z" fill="white"/>
<path d="M120 120V123H123V120H120ZM117 60V120H123V60H117ZM120 117H60V123H120V117Z" fill="#FB71A4" mask="url(#path-5-inside-1_11_258)"/>
<path d="M76.9588 105H70.5748V75.684H84.4768C85.8208 75.684 87.0388 75.908 88.1308 76.356C89.2228 76.804 90.1468 77.448 90.9028 78.288C91.6868 79.1 92.2888 80.08 92.7088 81.228C93.1288 82.376 93.3388 83.65 93.3388 85.05C93.3388 87.038 92.8908 88.774 91.9948 90.258C91.1268 91.742 89.7968 92.82 88.0048 93.492L93.7588 105H86.6608L81.5368 94.248H76.9588V105ZM83.6788 88.872C84.6308 88.872 85.3728 88.634 85.9048 88.158C86.4648 87.654 86.7448 86.926 86.7448 85.974V84.126C86.7448 83.174 86.4648 82.46 85.9048 81.984C85.3728 81.48 84.6308 81.228 83.6788 81.228H76.9588V88.872H83.6788ZM101.648 80.598C100.388 80.598 99.4636 80.318 98.8756 79.758C98.3156 79.17 98.0356 78.428 98.0356 77.532V76.608C98.0356 75.712 98.3156 74.984 98.8756 74.424C99.4636 73.836 100.388 73.542 101.648 73.542C102.908 73.542 103.818 73.836 104.378 74.424C104.966 74.984 105.26 75.712 105.26 76.608V77.532C105.26 78.428 104.966 79.17 104.378 79.758C103.818 80.318 102.908 80.598 101.648 80.598ZM98.5396 82.95H104.756V105H98.5396V82.95Z" fill="#12111E"/>
</svg>
